HIERARCHY
ROOT ui
{
	 OFFSET 0 0 0
	 CHANNELS 3 XPosition YPosition Z Position
	 EndSite
	 {
	 OFFSET 0 -1 0
	 }
}
ROOT li
{
	 OFFSET 0 0 0
	 CHANNELS 3 XPosition YPosition Z Position
	 EndSite
	 {
	 OFFSET 0 -1 0
	 }
}
ROOT ul
{
	 OFFSET 0 0 0
	 CHANNELS 3 XPosition YPosition Z Position
	 EndSite
	 {
	 OFFSET 0 -1 0
	 }
}
ROOT ll
{
	 OFFSET 0 0 0
	 CHANNELS 3 XPosition YPosition Z Position
	 EndSite
	 {
	 OFFSET 0 -1 0
	 }
}
ROOT tt
{
	 OFFSET 0 0 0
	 CHANNELS 3 XPosition YPosition Z Position
	 EndSite
	 {
	 OFFSET 0 -1 0
	 }
}
ROOT tb
{
	 OFFSET 0 0 0
	 CHANNELS 3 XPosition YPosition Z Position
	 EndSite
	 {
	 OFFSET 0 -1 0
	 }
}
ROOT td
{
	 OFFSET 0 0 0
	 CHANNELS 3 XPosition YPosition Z Position
	 EndSite
	 {
	 OFFSET 0 -1 0
	 }
}
ROOT v
{
	 OFFSET 0 0 0
	 CHANNELS 3 XPosition YPosition Z Position
	 EndSite
	 {
	 OFFSET 0 -1 0
	 }
}
ROOT bn
{
	 OFFSET 0 0 0
	 CHANNELS 3 XPosition YPosition Z Position
	 EndSite
	 {
	 OFFSET 0 -1 0
	 }
}
MOTION
Frames: 10
Frame Time: 0.002
0.001279937982559204	-0.0016385170221328736	0		0.45244186401367187	-2.28864404296875	0		-1.0479935302734376	-0.008790772438049316	0		-0.7641306762695312	-2.31195263671875	0		1.634761962890625	-0.45749099731445314	0		3.25197021484375	0.07007564544677734	0		4.6719423828125	0.1739360809326172	0		5.6328095703125	0.22932362365722656	0		-0.3651745910644531	5.8534423828125	0		
0.036375648498535154	0.006496952056884765	0		0.5012522583007812	-2.292760986328125	0		-1.047978271484375	-0.005021880149841309	0		-0.7971046142578125	-2.3026318359375	0		1.602732421875	-0.4552687377929687	0		3.24124560546875	0.08888182067871093	0		4.67510009765625	0.18545576477050782	0		5.6264365234375	0.24090505981445312	0		-0.3680422668457031	5.85223974609375	0		
0.03644681167602539	0.009217041015625	0		0.44937380981445313	-2.282169189453125	0		-1.047907470703125	-0.0022655858993530275	0		-0.7651835327148437	-2.304429931640625	0		1.6358857421875	-0.4471654052734375	0		3.248028076171875	0.07437784576416015	0		4.67112646484375	0.18508973693847655	0		5.630013671875	0.23995547485351562	0		-0.3596404724121094	5.86283544921875	0		
0.039363018035888674	-0.0041189098358154295	0		0.49529583740234373	-2.2912548828125	0		-1.05581884765625	-0.005380043029785156	0		-0.7711519165039062	-2.306587646484375	0		1.62894287109375	-0.4513828125	0		3.253288330078125	0.08090184020996094	0		4.667271484375	0.18472314453125	0		5.62725732421875	0.2392723846435547	0		-0.363313232421875	5.8626298828125	0		
0.024832586288452148	0.005846553802490234	0		0.491522705078125	-2.291490478515625	0		-1.0595223388671875	-0.00556828784942627	0		-0.7518775024414063	-2.30417919921875	0		1.6252257080078125	-0.45165286254882814	0		3.24046875	0.07373758697509766	0		4.66357421875	0.1843605194091797	0		5.6246142578125	0.2385985107421875	0		-0.3800074157714844	5.85264501953125	0		
0.018265480041503905	0.0026766328811645506	0		0.48590655517578124	-2.293691162109375	0		-1.0671068115234374	-0.009689715385437012	0		-0.8165195922851562	-2.307330810546875	0		1.6017166748046876	-0.45057748413085935	0		3.23207568359375	0.08050807952880859	0		4.6628564453125	0.17195553588867188	0		5.62210400390625	0.23794007873535156	0		-0.3843380432128906	5.85345166015625	0		
0.028836881637573242	-0.0047832407951354985	0		0.44252734375	-2.29423583984375	0		-1.139317138671875	-0.003694844961166382	0		-0.7818763427734375	-2.30718212890625	0		1.57841845703125	-0.44949649047851564	0		3.238529296875	0.06603154754638672	0		4.65164208984375	0.1767472381591797	0		5.6133251953125	0.23756980895996094	0		-0.37235140991210935	5.8609833984375	0		
0.02882567024230957	-0.00105239999294281	0		0.43564944458007815	-2.279396484375	0		-1.1174005126953126	-0.004313117027282715	0		-0.8148884887695312	-2.29986328125	0		1.6042545166015625	-0.45425091552734376	0		3.235968017578125	0.09573005676269532	0		4.66266845703125	0.18217291259765625	0		5.62048388671875	0.24867782592773438	0		-0.3743019714355469	5.85975927734375	0		
0.025983055114746093	-0.0012634880542755128	0		0.4805920715332031	-2.289443359375	0		-1.0682164306640625	-0.003394853115081787	0		-0.7879091796875	-2.3075712890625	0		1.59245458984375	-0.45134347534179686	0		3.227731689453125	0.07253484344482422	0		4.6508486328125	0.1830102996826172	0		5.6155166015625	0.23610447692871095	0		-0.37897500610351564	5.861591796875	0		
0.020312265396118166	-0.005413517951965332	0		0.44994580078125	-2.289171875	0		-1.074869873046875	-0.006504687786102295	0		-0.7915943603515625	-2.309739013671875	0		1.6098226318359374	-0.4529241027832031	0		3.220252685546875	0.07935017395019531	0		4.65104248046875	0.1706603240966797	0		5.6136591796875	0.2355533447265625	0		-0.3946242370605469	5.85162353515625	0		
